PathFileType	4	(X/Y/Z)	/home/nbianco/projects/addbio/data/HamnerRunning2013/Processed/subject03//results/MarkerData/run200.trc
DataRate	CameraRate	NumFrames	NumMarkers	Units	OrigDataRate	OrigDataStartFrame	OrigNumFrames
100	100	8	45	m	100	0	219
Frame#	Time	C7			CLAV			LACR			LASI			LCAL			LFAradius			LFAsuperior			LFAulna			LLEL			LMEL			LMT5			LPSH			LPSI			LTB1			LTB2			LTB3			LTH1			LTH2			LTH3			LTOE			LUA1			LUA2			LUA3			RACR			RASI			RCAL			RFAradius			RFAsuperior			RFAulna			RLEL			RLMAL			RMEL			RMMAL			RMT5			RPSI			RTB1			RTB2			RTB3			RTH1			RTH2			RTH3			RTOE			RUA1			RUA2			RUA3		
		X1	Y1	Z1	X2	Y2	Z2	X3	Y3	Z3	X4	Y4	Z4	X5	Y5	Z5	X6	Y6	Z6	X7	Y7	Z7	X8	Y8	Z8	X9	Y9	Z9	X10	Y10	Z10	X11	Y11	Z11	X12	Y12	Z12	X13	Y13	Z13	X14	Y14	Z14	X15	Y15	Z15	X16	Y16	Z16	X17	Y17	Z17	X18	Y18	Z18	X19	Y19	Z19	X20	Y20	Z20	X21	Y21	Z21	X22	Y22	Z22	X23	Y23	Z23	X24	Y24	Z24	X25	Y25	Z25	X26	Y26	Z26	X27	Y27	Z27	X28	Y28	Z28	X29	Y29	Z29	X30	Y30	Z30	X31	Y31	Z31	X32	Y32	Z32	X33	Y33	Z33	X34	Y34	Z34	X35	Y35	Z35	X36	Y36	Z36	X37	Y37	Z37	X38	Y38	Z38	X39	Y39	Z39	X40	Y40	Z40	X41	Y41	Z41	X42	Y42	Z42	X43	Y43	Z43	X44	Y44	Z44	X45	Y45	Z45

1	0.2	0.947799	1.61003	-0.495485	1.04262	1.50514	-0.465903	0.99387	1.59733	-0.644414	1.0087	1.0811	-0.617307	0.492555	0.269744	-0.554105	1.08484	1.35728	-0.60069	1.00381	1.23847	-0.702696	1.11805	1.29675	-0.599165	0.94334	1.25436	-0.777944	0.88478	1.24451	-0.70517	0.538717	0.100449	-0.627834	0.916638	1.55591	-0.670304	0.847983	1.1206	-0.543227	0.788045	0.429566	-0.62044	0.656683	0.407194	-0.63681	0.649331	0.294655	-0.601312	0.873179	0.869709	-0.666365	0.922255	0.748145	-0.655131	0.848546	0.661648	-0.648227	0.587353	0.0805635	-0.559072	0.942372	1.46346	-0.727322	0.885653	1.3783	-0.721761	0.923682	1.33262	-0.767499	0.961166	1.57274	-0.342197	1.01735	1.09099	-0.385482	1.04053	0.0924386	-0.433713	0.946866	1.19983	-0.255024	0.756426	1.26002	-0.215931	0.910727	1.14825	-0.230774	0.726646	1.33522	-0.216434	1.09463	0.129409	-0.374494	0.716651	1.31929	-0.301207	1.10865	0.15839	-0.454056	1.20499	0.095991	-0.348735	0.850629	1.11758	-0.454513	1.11743	0.433081	-0.387782	1.08364	0.372844	-0.343585	1.11791	0.250953	-0.391325	0.973153	0.828898	-0.322639	1.0634	0.777433	-0.343691	1.02211	0.666309	-0.348199	1.25869	0.133731	-0.425024	0.857712	1.46633	-0.257203	0.775041	1.44231	-0.298022	0.747472	1.39842	-0.249391
2	0.21	0.94827	1.6063	-0.493652	1.04337	1.50146	-0.464845	0.994599	1.59426	-0.643007	1.00904	1.07773	-0.616141	0.496054	0.279965	-0.555782	1.08443	1.34997	-0.600911	1.00035	1.23461	-0.704822	1.1163	1.28873	-0.601028	0.939718	1.25311	-0.77926	0.881316	1.24323	-0.706384	0.52973	0.107644	-0.628775	0.917022	1.55346	-0.668806	0.848472	1.11625	-0.542445	0.79514	0.425653	-0.619566	0.66271	0.409017	-0.63611	0.650619	0.296334	-0.60175	0.877614	0.863676	-0.664607	0.928693	0.743218	-0.652597	0.857063	0.655532	-0.646318	0.577418	0.0801683	-0.559888	0.941408	1.46175	-0.726513	0.883731	1.37726	-0.721103	0.920956	1.33174	-0.76799	0.962778	1.56816	-0.340482	1.01819	1.088	-0.384472	1.03146	0.0920512	-0.43697	0.952229	1.19508	-0.255068	0.760813	1.25243	-0.21626	0.916643	1.14267	-0.231693	0.730127	1.3272	-0.216291	1.08686	0.125216	-0.37788	0.719582	1.31226	-0.300606	1.10085	0.153492	-0.457711	1.19541	0.090159	-0.354964	0.851256	1.11364	-0.453424	1.11516	0.428213	-0.391518	1.08067	0.368465	-0.346857	1.11219	0.246003	-0.394834	0.97565	0.825633	-0.323961	1.06704	0.776483	-0.343673	1.02374	0.663575	-0.350213	1.25034	0.124213	-0.432776	0.860208	1.45978	-0.255707	0.777258	1.43596	-0.296173	0.750436	1.39084	-0.248382
3	0.22	0.948641	1.60165	-0.492021	1.04401	1.49677	-0.463954	0.995273	1.59009	-0.641694	1.00924	1.07346	-0.614774	0.500355	0.288859	-0.557065	1.08414	1.34094	-0.601982	0.996367	1.22966	-0.707448	1.11453	1.27895	-0.603867	0.935489	1.25106	-0.780881	0.877618	1.24118	-0.707868	0.523427	0.114939	-0.629882	0.917363	1.54995	-0.667376	0.848923	1.11089	-0.541585	0.803197	0.421078	-0.618885	0.669912	0.410258	-0.635525	0.653079	0.297803	-0.602386	0.882016	0.857024	-0.662551	0.935428	0.737681	-0.650408	0.866007	0.648681	-0.64435	0.568779	0.0797479	-0.561204	0.940378	1.4591	-0.725954	0.881597	1.37551	-0.720709	0.917867	1.33001	-0.768592	0.964409	1.56263	-0.338812	1.01861	1.08416	-0.382684	1.01899	0.092029	-0.439394	0.958468	1.18919	-0.255054	0.766107	1.24342	-0.216115	0.923453	1.13588	-0.232639	0.73442	1.31772	-0.215439	1.07602	0.120636	-0.380422	0.722831	1.30356	-0.299466	1.08972	0.147584	-0.46076	1.18299	0.0806378	-0.360647	0.851502	1.10886	-0.452117	1.11232	0.422217	-0.395741	1.0769	0.363252	-0.350348	1.10451	0.23997	-0.398196	0.978376	0.821485	-0.3261	1.07023	0.773746	-0.345867	1.02498	0.659493	-0.352635	1.23903	0.111363	-0.439709	0.863099	1.45198	-0.254037	0.779758	1.42813	-0.293727	0.753998	1.38172	-0.246797
4	0.23	0.94884	1.59608	-0.490636	1.04455	1.49109	-0.463229	0.995837	1.58487	-0.640511	1.00933	1.06827	-0.613271	0.504696	0.29652	-0.557968	1.0839	1.33027	-0.603885	0.991887	1.22363	-0.710586	1.11265	1.26749	-0.607665	0.930692	1.24821	-0.78279	0.873634	1.23834	-0.709526	0.519966	0.122194	-0.631149	0.917599	1.54535	-0.665981	0.84913	1.1047	-0.540544	0.811951	0.416016	-0.618383	0.678044	0.411009	-0.635124	0.656547	0.299338	-0.603181	0.886392	0.849729	-0.66041	0.942451	0.731557	-0.648652	0.875316	0.641128	-0.642454	0.562439	0.0807047	-0.56293	0.939188	1.45551	-0.725577	0.879279	1.37298	-0.720577	0.91445	1.32743	-0.769318	0.966046	1.55615	-0.337211	1.01869	1.07942	-0.380695	1.00384	0.0921254	-0.441244	0.965503	1.18218	-0.255093	0.772276	1.23305	-0.215505	0.931104	1.12798	-0.233591	0.739505	1.30686	-0.213954	1.06279	0.116367	-0.382398	0.726613	1.29323	-0.297891	1.07604	0.14151	-0.463348	1.16821	0.0696602	-0.364483	0.851346	1.10328	-0.450773	1.10934	0.415576	-0.400132	1.07287	0.357593	-0.353863	1.09557	0.233417	-0.401521	0.980879	0.816642	-0.327894	1.07237	0.769166	-0.350032	1.02606	0.654253	-0.355284	1.22537	0.0972396	-0.444272	0.86636	1.443	-0.252246	0.782558	1.41887	-0.290747	0.75817	1.3711	-0.244714
5	0.24	0.948803	1.58972	-0.489461	1.04504	1.48448	-0.462647	0.996218	1.57871	-0.639566	1.00933	1.06221	-0.611712	0.50829	0.303249	-0.558633	1.0836	1.31802	-0.606559	0.986931	1.21656	-0.714258	1.11054	1.25447	-0.612395	0.925371	1.24456	-0.784892	0.869287	1.23469	-0.71118	0.519504	0.129208	-0.632555	0.917624	1.5397	-0.664628	0.84881	1.09792	-0.53926	0.821177	0.410863	-0.617958	0.686894	0.411519	-0.634972	0.660951	0.301257	-0.60393	0.890762	0.841677	-0.658452	0.949676	0.724891	-0.647339	0.884963	0.632961	-0.640843	0.560207	0.0844481	-0.56488	0.937696	1.45097	-0.725313	0.876773	1.36956	-0.720636	0.910732	1.32397	-0.77015	0.967683	1.54877	-0.335694	1.0185	1.07382	-0.379342	0.986941	0.092169	-0.442639	0.973175	1.17408	-0.255415	0.779278	1.22147	-0.214467	0.939532	1.11909	-0.234544	0.745352	1.29474	-0.211942	1.04825	0.113452	-0.384126	0.731154	1.28144	-0.295912	1.06089	0.136555	-0.465685	1.15161	0.0609066	-0.365615	0.850735	1.09708	-0.449669	1.10675	0.409236	-0.404613	1.06958	0.35234	-0.357316	1.08622	0.227407	-0.405073	0.982813	0.811629	-0.328306	1.07337	0.763629	-0.35506	1.02764	0.64867	-0.357836	1.21005	0.0852091	-0.445483	0.869973	1.43297	-0.250374	0.785715	1.40824	-0.287346	0.762985	1.35912	-0.242173
6	0.25	0.9486	1.58295	-0.488335	1.04555	1.47718	-0.462134	0.99636	1.57189	-0.639007	1.00912	1.05541	-0.610147	0.511215	0.309355	-0.559263	1.08321	1.30425	-0.609951	0.981509	1.20855	-0.718406	1.10812	1.24002	-0.618018	0.919554	1.24018	-0.787038	0.864614	1.23027	-0.712738	0.522108	0.135786	-0.634068	0.917358	1.5332	-0.663406	0.847776	1.09075	-0.537855	0.830944	0.406094	-0.617402	0.696536	0.412087	-0.635018	0.666526	0.303617	-0.604346	0.895128	0.832888	-0.656802	0.956934	0.717869	-0.646356	0.894947	0.624428	-0.639585	0.563362	0.0908104	-0.566852	0.935805	1.44552	-0.725165	0.874002	1.36522	-0.72076	0.906695	1.31967	-0.771035	0.969247	1.54072	-0.33421	1.01804	1.06765	-0.378748	0.969015	0.0922813	-0.443437	0.981355	1.16493	-0.256189	0.787088	1.20886	-0.213106	0.948703	1.10933	-0.235526	0.751954	1.28152	-0.209503	1.03313	0.112422	-0.385659	0.736514	1.2685	-0.293499	1.04497	0.133548	-0.467815	1.13362	0.0566582	-0.36488	0.849642	1.0905	-0.448993	1.10451	0.40407	-0.409539	1.06757	0.348359	-0.360921	1.07678	0.222913	-0.408946	0.984379	0.807019	-0.327572	1.07409	0.758767	-0.359534	1.03055	0.643925	-0.359947	1.19343	0.0775352	-0.444423	0.873951	1.42196	-0.248404	0.789295	1.39632	-0.283647	0.768472	1.34602	-0.239145
7	0.26	0.948462	1.57637	-0.487103	1.04608	1.46978	-0.461562	0.996259	1.56478	-0.638928	1.00853	1.04816	-0.608633	0.514472	0.314881	-0.559966	1.08273	1.28896	-0.614064	0.975581	1.19978	-0.72285	1.10536	1.22427	-0.62448	0.913258	1.23526	-0.789119	0.859744	1.22526	-0.714205	0.527758	0.141749	-0.635654	0.916806	1.52629	-0.662461	0.845999	1.08342	-0.536579	0.841531	0.402079	-0.616543	0.707262	0.412891	-0.635065	0.673688	0.306177	-0.604307	0.899464	0.823842	-0.655385	0.964072	0.71095	-0.645576	0.905209	0.616044	-0.638472	0.571676	0.0982141	-0.568698	0.933501	1.43936	-0.725194	0.870847	1.36011	-0.720837	0.902265	1.31463	-0.771929	0.970533	1.5325	-0.332674	1.01724	1.06137	-0.378008	0.950457	0.0926532	-0.443596	0.990068	1.15487	-0.257391	0.795716	1.19544	-0.211598	0.958609	1.09882	-0.236581	0.759351	1.26741	-0.206748	1.01752	0.112887	-0.386872	0.742691	1.25476	-0.290714	1.02849	0.132335	-0.469593	1.11467	0.0562338	-0.36392	0.848105	1.0838	-0.448714	1.10194	0.400238	-0.415056	1.06602	0.345922	-0.364846	1.06682	0.220173	-0.412767	0.986051	0.803011	-0.326711	1.07546	0.755643	-0.362712	1.03499	0.640653	-0.361424	1.17579	0.0739485	-0.443142	0.878337	1.4101	-0.246354	0.793317	1.3833	-0.27975	0.774589	1.33206	-0.235669
8	0.27	0.948623	1.57049	-0.485779	1.04658	1.46301	-0.460845	0.995996	1.5578	-0.639263	1.00742	1.04092	-0.607305	0.519269	0.319559	-0.560672	1.08223	1.27221	-0.618912	0.969064	1.19054	-0.727371	1.10224	1.20727	-0.631728	0.906509	1.23012	-0.791093	0.854685	1.21997	-0.715523	0.536369	0.146938	-0.637283	0.916062	1.51951	-0.661868	0.843602	1.0762	-0.535593	0.853154	0.398984	-0.615428	0.719254	0.413935	-0.634878	0.682725	0.308601	-0.603979	0.903677	0.815497	-0.654007	0.971056	0.704858	-0.644936	0.915603	0.608567	-0.637151	0.583831	0.105032	-0.570383	0.930843	1.4329	-0.725389	0.867236	1.35458	-0.720781	0.897321	1.30917	-0.772775	0.97131	1.52467	-0.331062	1.01613	1.05544	-0.376105	0.931471	0.0932437	-0.443421	0.99948	1.14408	-0.258933	0.805238	1.18145	-0.210123	0.969263	1.08764	-0.237748	0.767687	1.2527	-0.203837	1.00098	0.113911	-0.387753	0.749814	1.24052	-0.287764	1.01138	0.132017	-0.470931	1.09523	0.0571879	-0.363648	0.846212	1.07726	-0.448557	1.09817	0.397041	-0.420448	1.06302	0.344455	-0.368771	1.05564	0.21852	-0.415885	0.987906	0.799351	-0.326374	1.07741	0.753793	-0.364693	1.03979	0.638307	-0.36239	1.15741	0.0724776	-0.442761	0.883176	1.39762	-0.244397	0.797721	1.36956	-0.275748	0.781222	1.31753	-0.231973
